<svg width="20" height="24" viewBox="0 0 20 24" fill="none" xmlns="http://www.w3.org/2000/svg">
<g clip-path="url(#clip0_13_84)">
<path d="M18.8746 24C18.7504 24 18.6261 24 18.5019 24C18.3279 23.8625 18.1353 23.7437 17.98 23.5812C15.2835 20.875 12.5871 18.1625 9.89684 15.45C9.83471 15.3875 9.80364 15.2875 9.76015 15.2063C9.72287 15.2188 9.68559 15.2375 9.65453 15.25C9.60483 15.3188 9.55512 15.3938 9.4992 15.45C6.79654 18.1688 4.1063 20.875 1.40364 23.5875C1.24832 23.7437 1.05571 23.8625 0.881748 24C0.757487 24 0.633227 24 0.508967 24C0.111333 23.8062 -0.00671387 23.4812 -0.00671387 23.05C0.00571217 15.6625 0.00571217 8.275 -0.000500849 0.89375C-0.000500849 0.45625 0.142399 0.15 0.558671 0C6.64743 0 12.7362 0 18.8249 0C19.2412 0.15 19.3841 0.45625 19.3841 0.89375C19.3779 8.28125 19.3779 15.6625 19.3841 23.05C19.3841 23.4812 19.2723 23.8062 18.8746 24ZM17.9738 1.41875C12.4442 1.41875 6.93944 1.41875 1.42228 1.41875C1.42228 8.13125 1.42228 14.8375 1.42228 21.5375C1.44713 21.5562 1.47198 21.575 1.49684 21.5938C1.54654 21.5125 1.58382 21.425 1.64595 21.3563C4.12494 18.8563 6.61015 16.3625 9.08914 13.8687C9.19477 13.7625 9.32524 13.6562 9.46193 13.6C9.79743 13.4688 10.0522 13.625 10.2883 13.8625C12.7735 16.3687 15.2587 18.8687 17.7501 21.3687C17.8122 21.4312 17.8744 21.4875 17.9675 21.575C17.9738 14.8313 17.9738 8.1375 17.9738 1.41875Z" fill="#6A6A6A"/>
</g>
<defs>
<clipPath id="clip0_13_84">
<rect width="19.3846" height="24" fill="white"/>
</clipPath>
</defs>
</svg>
