<svg width="100" height="38" viewBox="0 0 100 38" fill="none" xmlns="http://www.w3.org/2000/svg">
<g clip-path="url(#clip0_17_325)">
<path d="M18.9378 38L14.9434 33.684C11.8928 34.4888 8.6496 34.103 5.87387 32.605C4.10812 31.6256 2.64527 30.1814 1.64454 28.4296C0.615751 26.5864 0.0757446 24.5113 0.0757446 22.4013C0.0757446 20.2912 0.615751 18.2161 1.64454 16.3729C2.65393 14.6399 4.11571 13.213 5.87387 12.2445C7.68284 11.259 9.71066 10.7426 11.7714 10.7426C13.8322 10.7426 15.86 11.259 17.669 12.2445C19.43 13.2091 20.8927 14.6369 21.8983 16.3729C22.857 18.1794 23.3582 20.1927 23.3582 22.2371C23.3582 24.2814 22.857 26.2948 21.8983 28.1013C21.0191 29.7629 19.724 31.1691 18.1389 32.1827L23.637 38H18.9378ZM4.84003 26.8346C5.46093 28.065 6.42343 29.091 7.61259 29.7901C8.85147 30.4677 10.2413 30.8228 11.6539 30.8228C13.0665 30.8228 14.4564 30.4677 15.6953 29.7901C16.9086 29.0855 17.8887 28.0418 18.5148 26.7877C19.1748 25.4026 19.5172 23.8881 19.5172 22.3543C19.5172 20.8206 19.1748 19.3061 18.5148 17.921C17.891 16.7048 16.9281 15.6947 15.7423 15.0124C14.4994 14.3471 13.1111 13.999 11.7009 13.999C10.2907 13.999 8.90242 14.3471 7.65959 15.0124C6.47375 15.6947 5.51089 16.7048 4.88703 17.921C4.21975 19.3026 3.8693 20.8153 3.86117 22.349C3.85304 23.8828 4.18743 25.3991 4.84003 26.7877V26.8346Z" fill="white"/>
<path d="M43.468 15.763V33.8716H39.7086V31.7136C39.0977 32.4859 38.3073 33.0978 37.406 33.4963C36.4464 33.9304 35.4049 34.1544 34.3515 34.1531C33.0131 34.1772 31.6895 33.871 30.4981 33.2617C29.3619 32.6735 28.4287 31.7583 27.8195 30.6346C27.1301 29.3361 26.7901 27.8813 26.8327 26.4123V15.763H30.5451V25.8494C30.4608 27.1955 30.8982 28.5225 31.7669 29.5556C32.1965 30.0001 32.7166 30.3474 33.2922 30.574C33.8678 30.8007 34.4854 30.9013 35.1033 30.8691C35.7742 30.9444 36.4535 30.8651 37.0889 30.6374C37.7243 30.4097 38.299 30.0396 38.7688 29.5556C39.6417 28.5249 40.0798 27.1962 39.9905 25.8494V15.763H43.468Z" fill="white"/>
<path d="M54.4175 16.2321C55.3866 15.7202 56.4698 15.4619 57.566 15.4815V19.3753H56.6261C55.4098 19.3046 54.2136 19.7083 53.2897 20.5012C52.4165 21.6011 52.0115 22.9996 52.1619 24.395V33.7778H48.4025V15.7629H52.1619V18.3901C52.7048 17.4807 53.4843 16.7349 54.4175 16.2321Z" fill="white"/>
<path d="M60.9961 19.8914C61.7063 18.5445 62.7756 17.4199 64.0859 16.6417C65.3962 15.8634 66.8964 15.4619 68.4209 15.4815C69.7087 15.4583 70.9827 15.7481 72.1333 16.3259C73.1246 16.8345 73.9911 17.5554 74.6709 18.4371V15.763H78.4303V33.8716H74.6709V31.1506C73.9864 32.0582 73.1021 32.7966 72.0863 33.3087C70.826 33.9282 69.4303 34.2227 68.0266 34.1653C66.6229 34.108 65.256 33.7005 64.0506 32.9803C62.75 32.1656 61.6944 31.0146 60.9961 29.6494C60.2542 28.1965 59.8677 26.5888 59.8683 24.958C59.7906 23.1995 60.1797 21.4516 60.9961 19.8914ZM73.919 21.5334C73.4507 20.659 72.752 19.929 71.8983 19.4222C71.0836 18.9552 70.1593 18.7124 69.2198 18.7185C68.2811 18.719 67.3585 18.9614 66.5412 19.4222C65.6909 19.9124 64.9919 20.6265 64.5205 21.4864C63.9921 22.4818 63.7329 23.5975 63.7687 24.7235C63.7375 25.864 63.9962 26.9937 64.5205 28.0074C64.9839 28.8976 65.6828 29.644 66.5412 30.1655C67.3505 30.651 68.2756 30.9102 69.2198 30.9161C70.1593 30.9222 71.0836 30.6794 71.8983 30.2124C72.752 29.7056 73.4507 28.9756 73.919 28.1012C74.4473 27.089 74.7062 25.9582 74.6709 24.8173C74.7105 23.676 74.4514 22.5441 73.919 21.5334Z" fill="white"/>
<path d="M96.3816 16.3728C97.5039 16.9639 98.4212 17.8796 99.0132 19C99.6803 20.305 100.004 21.758 99.953 23.2222V33.9185H96.2876V23.7383C96.3982 22.4046 95.9948 21.079 95.1598 20.0321C94.7302 19.5875 94.21 19.2402 93.6344 19.0136C93.0588 18.787 92.4412 18.6864 91.8233 18.7185C91.2058 18.6894 90.589 18.7914 90.0139 19.0179C89.4388 19.2443 88.9183 19.59 88.4869 20.0321C87.6139 21.0627 87.1758 22.3915 87.2651 23.7383V33.8716H83.4117V15.763H87.1711V17.8272C87.8033 17.0686 88.6093 16.4732 89.5207 16.0914C90.4851 15.6774 91.5256 15.4697 92.5752 15.4815C93.8977 15.4651 95.2043 15.771 96.3816 16.3728Z" fill="white"/>
<path d="M23.3082 3.98766C23.8208 3.09912 24.5687 2.36871 25.4698 1.87655C26.3747 1.3742 27.395 1.11552 28.4304 1.12593C29.59 1.1002 30.7324 1.40975 31.7198 2.01729C32.6737 2.62788 33.4002 3.53446 33.7875 4.59754H31.5319C31.2455 4.05802 30.8035 3.61676 30.2631 3.33087C29.703 3.0191 29.0716 2.85747 28.4304 2.86173C27.7073 2.84595 26.9932 3.02416 26.3627 3.37778C25.7552 3.729 25.2648 4.25116 24.9529 4.87902C24.5889 5.60753 24.3993 6.41055 24.3993 7.2247C24.3993 8.03885 24.5889 8.84186 24.9529 9.57037C25.2671 10.1967 25.7569 10.7182 26.3627 11.0716C26.9924 11.4274 27.707 11.6058 28.4304 11.5877C29.0716 11.5919 29.703 11.4303 30.2631 11.1185C30.8175 10.8079 31.2611 10.3323 31.5319 9.75803H33.8345C33.4503 10.8229 32.7231 11.7303 31.7668 12.3383C30.7772 12.9409 29.6364 13.2501 28.4774 13.2296C27.442 13.2401 26.4217 12.9814 25.5168 12.479C24.6157 11.9869 23.8679 11.2564 23.3552 10.3679C22.773 9.40707 22.4613 8.30717 22.453 7.18423C22.4447 6.06129 22.7402 4.95694 23.3082 3.98766Z" fill="white"/>
<path d="M37.6412 12.4321C36.95 12.049 36.3802 11.4801 35.9965 10.7901C35.5969 10.022 35.3883 9.16918 35.3883 8.30367C35.3883 7.43817 35.5969 6.58537 35.9965 5.81726C36.395 5.12238 36.9812 4.5534 37.6882 4.17528C38.4158 3.80462 39.221 3.61136 40.0378 3.61136C40.8546 3.61136 41.6599 3.80462 42.3874 4.17528C43.0944 4.5534 43.6807 5.12238 44.0792 5.81726C44.4987 6.57783 44.7095 7.4356 44.6901 8.30367C44.7213 9.17299 44.5098 10.0339 44.0792 10.7901C43.6688 11.504 43.0665 12.0891 42.3404 12.479C41.6056 12.8802 40.7813 13.0899 39.9438 13.0889C39.1323 13.0721 38.339 12.8458 37.6412 12.4321ZM41.3536 11.0247C41.7859 10.781 42.1434 10.4242 42.3874 9.99256C42.6575 9.47173 42.787 8.88967 42.7634 8.30367C42.7849 7.71787 42.6555 7.13636 42.3874 6.61479C42.1495 6.17859 41.7905 5.82021 41.3536 5.58269C40.9343 5.36043 40.4655 5.24747 39.9908 5.25429C39.5159 5.2454 39.0466 5.35848 38.628 5.58269C38.2052 5.82308 37.8621 6.1819 37.6412 6.61479C37.377 7.13774 37.2478 7.71825 37.2653 8.30367C37.204 9.13874 37.474 9.96438 38.0171 10.6024C38.2614 10.8665 38.5602 11.0746 38.8928 11.2122C39.2254 11.3499 39.584 11.414 39.9438 11.4C40.4386 11.4005 40.9248 11.2711 41.3536 11.0247Z" fill="white"/>
<path d="M48.5435 0.562958V12.7136H46.6638V0.562958H48.5435Z" fill="white"/>
<path d="M52.8667 12.4321C52.1755 12.049 51.6057 11.4802 51.222 10.7901C50.8224 10.022 50.6138 9.16922 50.6138 8.30371C50.6138 7.43821 50.8224 6.58541 51.222 5.8173C51.6007 5.11149 52.1707 4.52625 52.8667 4.12841C53.5943 3.75774 54.3995 3.56448 55.2163 3.56448C56.0332 3.56448 56.8384 3.75774 57.566 4.12841C58.2729 4.50652 58.8592 5.07551 59.2577 5.77038C59.6773 6.53095 59.888 7.38873 59.8686 8.2568C59.8998 9.12612 59.6883 9.98699 59.2577 10.7432C58.8473 11.4571 58.2451 12.0422 57.519 12.4321C56.7842 12.8333 55.9599 13.0431 55.1223 13.042C54.331 13.0316 53.5551 12.8218 52.8667 12.4321ZM56.5791 11.0247C57.0004 10.7616 57.3417 10.3885 57.566 9.94569C57.836 9.42486 57.9656 8.8428 57.9419 8.2568C57.9634 7.67099 57.834 7.08948 57.566 6.56792C57.328 6.13172 56.969 5.77334 56.5321 5.53581C56.1128 5.31355 55.6441 5.2006 55.1693 5.20742C54.6944 5.19853 54.2251 5.31161 53.8066 5.53581C53.3837 5.77621 53.0406 6.13502 52.8197 6.56792C52.5556 7.09087 52.4263 7.67137 52.4438 8.2568C52.3825 9.09187 52.6526 9.91752 53.1957 10.5556C53.44 10.8196 53.7387 11.0277 54.0713 11.1654C54.404 11.3031 54.7625 11.3671 55.1223 11.3531C55.5652 11.3447 55.9999 11.2321 56.3911 11.0247H56.5791Z" fill="white"/>
<path d="M64.6616 3.94072C65.1444 3.59252 65.7129 3.38173 66.3064 3.33085V5.30122H65.8364C65.5311 5.27805 65.2243 5.3159 64.9338 5.41257C64.6433 5.50923 64.375 5.66277 64.1447 5.86418C63.7067 6.42252 63.5044 7.12949 63.5808 7.83455V12.5259H61.7011V3.14319H63.5808V4.45677C63.9021 4.21302 64.2699 4.0374 64.6616 3.94072Z" fill="white"/>
<path d="M71.6635 5.25435H70.2068V12.7136H68.2801V5.25435H66.9643V3.70621H68.0451V3.04942C68.0069 2.62764 68.063 2.20266 68.2093 1.80514C68.3556 1.40762 68.5884 1.04747 68.891 0.750654C69.6879 0.16169 70.6777 -0.106276 71.6635 3.76441e-05V1.59509C71.2298 1.55201 70.7952 1.66882 70.4417 1.92349C70.314 2.07952 70.2191 2.25962 70.1626 2.45306C70.106 2.64649 70.0891 2.84931 70.1128 3.04942V3.70621H71.6635V5.25435Z" fill="white"/>
<path d="M81.8607 3.70615V13.0889H79.981V11.7753C79.6683 12.1638 79.2649 12.4698 78.8062 12.6666C78.319 12.8863 77.79 12.9983 77.2554 12.995C76.5846 12.997 75.9234 12.836 75.3288 12.5259C74.7536 12.2332 74.2791 11.7758 73.966 11.2123C73.6324 10.5598 73.4707 9.83332 73.4961 9.10121V3.70615H75.3758V8.81973C75.3323 9.50012 75.5508 10.1714 75.9866 10.6963C76.447 11.1216 77.0511 11.3579 77.6784 11.3579C78.3056 11.3579 78.9098 11.1216 79.3701 10.6963C79.8102 10.1738 80.0294 9.50072 79.981 8.81973V3.70615H81.8607Z" fill="white"/>
<path d="M86.278 0.562958V12.7136H84.3983V0.562958H86.278Z" fill="white"/>
</g>
<defs>
<clipPath id="clip0_17_325">
<rect width="100" height="38" fill="white"/>
</clipPath>
</defs>
</svg>
