<svg width="26" height="24" viewBox="0 0 26 24" fill="none" xmlns="http://www.w3.org/2000/svg">
<g clip-path="url(#clip0_13_81)">
<path d="M25.2625 12.7434C25.1809 13.3015 25.121 13.8636 25.0151 14.4164C24.1105 19.1385 20.2171 22.9925 15.5322 23.7993C12.146 24.382 9.04866 23.7033 6.29734 21.5742C5.47453 20.9331 4.74807 20.1742 4.14076 19.3212C3.84405 18.9078 3.898 18.4257 4.27234 18.1497C4.64669 17.8736 5.11247 17.9656 5.41576 18.3757C6.94668 20.4427 8.9605 21.7656 11.4684 22.2223C17.1783 23.2625 22.271 19.5779 23.4421 14.2443C23.9957 11.7122 23.5961 9.06173 22.3214 6.81277C21.0467 4.56382 18.9891 2.87861 16.5519 2.08765C10.7546 0.208001 4.61247 3.83527 3.37103 9.87628C3.34603 9.99763 3.32892 10.1203 3.30524 10.243L3.37826 10.3097C3.49997 10.1597 3.6105 9.9983 3.74471 9.86095C4.08616 9.51155 4.56708 9.49955 4.88813 9.8196C5.20918 10.1397 5.20655 10.6311 4.86576 10.9805C4.22717 11.6397 3.58309 12.294 2.93353 12.9435C2.55129 13.3235 2.01708 13.2768 1.7184 12.8374C1.18024 12.0373 0.657868 11.2325 0.130236 10.4277C0.0808941 10.353 0.0427362 10.271 -0.00134277 10.1923V9.79227C0.239447 9.32552 0.503921 9.15216 0.887474 9.19217C1.33155 9.24284 1.48616 9.63624 1.72629 9.95029C1.86971 9.3922 1.9776 8.86345 2.14076 8.35003C3.98616 2.57306 9.61708 -0.858844 15.5348 0.184663C20.2329 1.01213 24.1072 4.84277 25.0158 9.5709C25.1217 10.1237 25.1816 10.6858 25.2625 11.2432V12.7434Z" fill="#6A6A6A"/>
<path d="M12.2368 8.80013C12.2368 7.59993 12.2368 6.39973 12.2368 5.19953C12.234 5.00133 12.3043 4.8092 12.4339 4.66073C12.5635 4.51226 12.743 4.41812 12.9375 4.39673C13.1313 4.37585 13.3259 4.42839 13.4838 4.54423C13.6417 4.66007 13.7517 4.83102 13.7927 5.02416C13.8105 5.13073 13.8171 5.23891 13.8125 5.34688C13.8125 7.47168 13.8125 9.59626 13.8125 11.7206C13.8059 11.8051 13.8218 11.8899 13.8585 11.9661C13.8952 12.0423 13.9513 12.1072 14.021 12.154C15.3822 13.1875 16.7355 14.2324 18.0934 15.2712C18.3032 15.4319 18.4769 15.6113 18.5059 15.8926C18.5407 16.2314 18.4223 16.5041 18.1348 16.6788C18.0026 16.7669 17.8462 16.8102 17.6882 16.8025C17.5301 16.7949 17.3785 16.7366 17.2552 16.6361C16.7388 16.2514 16.2282 15.8586 15.7157 15.4686C14.6967 14.6938 13.6822 13.9136 12.6565 13.1482C12.3552 12.9235 12.2315 12.6461 12.2342 12.2747C12.2421 11.1165 12.2368 9.95832 12.2368 8.80013Z" fill="#6A6A6A"/>
</g>
<defs>
<clipPath id="clip0_13_81">
<rect width="25.2632" height="24" fill="white"/>
</clipPath>
</defs>
</svg>
