<svg width="24" height="24" viewBox="0 0 24 24" fill="none" xmlns="http://www.w3.org/2000/svg">
<path d="M12.0002 8.56754C11.404 8.56754 10.9801 8.81925 10.9801 9.19018V14.2373C10.9801 14.5553 11.404 14.8732 12.0002 14.8732C12.5698 14.8732 13.0334 14.5553 13.0334 14.2373V9.19018C13.0334 8.81925 12.5698 8.56754 12.0002 8.56754Z" fill="#EEEEEE"/>
<path d="M12.0001 5.45442C11.3907 5.45442 10.9138 5.89158 10.9138 6.39497C10.9138 6.89836 11.3907 7.34878 12.0001 7.34878C12.5963 7.34878 13.0732 6.89836 13.0732 6.39497C13.0732 5.89162 12.5962 5.45442 12.0001 5.45442Z" fill="#EEEEEE"/>
<path d="M12 0C6.29991 0 1.6875 4.61006 1.6875 10.3065C1.6875 14.958 4.74998 18.8203 8.87892 20.132L11.2242 23.5889C11.3986 23.846 11.6892 24 12 24C12.3108 24 12.6014 23.846 12.7758 23.5889L15.1211 20.132C19.2518 18.8197 22.3125 14.956 22.3125 10.3065C22.3125 4.60645 17.6964 0 12 0ZM14.2802 18.4265C14.0667 18.4862 13.8813 18.6196 13.7569 18.8031L12 21.3926L10.2432 18.8031C10.1187 18.6197 9.93328 18.4862 9.71977 18.4266C6.20517 17.4438 3.5625 14.2116 3.5625 10.3065C3.5625 5.65734 7.34756 1.875 12 1.875C16.6524 1.875 20.4375 5.65734 20.4375 10.3065C20.4375 14.2155 17.7909 17.4449 14.2802 18.4265Z" fill="#EEEEEE"/>
</svg>
