<svg width="15" height="15" viewBox="0 0 11 11" fill="none" xmlns="http://www.w3.org/2000/svg">
<g clip-path="url(#clip0_3_22)">
<path d="M9.69544 7.61723C11.4357 5.87694 11.4357 3.04526 9.69544 1.30497C7.95515 -0.435324 5.1235 -0.435324 3.38325 1.30497C1.90685 2.78137 1.68325 4.97715 2.71184 6.69182C2.71184 6.69182 2.78573 6.81577 2.68594 6.91549C2.11666 7.48473 0.408727 9.1927 0.408727 9.1927C-0.0445336 9.64593 -0.152436 10.2797 0.249513 10.6817L0.318719 10.7509C0.720668 11.1529 1.35447 11.045 1.8077 10.5917C1.8077 10.5917 3.51202 8.88739 4.08013 8.31932C4.1847 8.21475 4.30862 8.28863 4.30862 8.28863C6.02326 9.31719 8.21904 9.09363 9.69544 7.61723ZM4.20727 6.79317C2.92138 5.50727 2.92141 3.41499 4.20731 2.1291C5.49321 0.843237 7.58548 0.843201 8.87134 2.1291C10.1572 3.41496 10.1572 5.50727 8.87134 6.79317C7.58545 8.07899 5.49321 8.07899 4.20727 6.79317Z" fill="#9B9B9B"/>
<path d="M4.49148 4.19645C4.43163 4.19645 4.37079 4.18468 4.31214 4.15991C4.07787 4.06077 3.96827 3.79046 4.06742 3.55616C4.69059 2.08349 6.39566 1.39238 7.86831 2.01555C8.10257 2.1147 8.21218 2.38501 8.11303 2.61931C8.01384 2.85361 7.74361 2.96314 7.50924 2.86403C6.50449 2.43887 5.34106 2.91041 4.91593 3.91516C4.84155 4.09089 4.67096 4.19645 4.49148 4.19645Z" fill="#9B9B9B"/>
</g>
<defs>
<clipPath id="clip0_3_22">
<rect width="15" height="15" fill="white"/>
</clipPath>
</defs>
</svg>
