<svg width="24" height="24" viewBox="0 0 24 24" fill="none" xmlns="http://www.w3.org/2000/svg">
<path d="M22.2 9H21.54C21.2918 9.00045 21.0697 8.84558 20.9844 8.6124C20.9112 8.4204 20.8326 8.2326 20.748 8.0466C20.6429 7.8204 20.6908 7.55257 20.868 7.377L21.3384 6.906C22.0367 6.20153 22.0354 5.06543 21.3354 4.3626L19.6398 2.667C18.9361 1.9674 17.7995 1.9674 17.0958 2.667L16.6254 3.1368C16.4494 3.31328 16.1821 3.3612 15.9558 3.2568C15.7698 3.1722 15.582 3.0936 15.3894 3.0168C15.155 2.93213 14.9991 2.70923 15 2.46V1.8C15 0.805875 14.1941 0 13.2 0H10.8C9.80588 0 9 0.805875 9 1.8V2.46C9.00045 2.70825 8.84558 2.93032 8.6124 3.0156C8.4204 3.0888 8.2326 3.1674 8.0466 3.252C7.82033 3.35663 7.55288 3.3087 7.377 3.132L6.906 2.6616C6.20235 1.96245 5.06625 1.96245 4.3626 2.6616L2.667 4.3626C1.9674 5.06633 1.9674 6.20288 2.667 6.9066L3.1368 7.377C3.31395 7.55257 3.36195 7.8204 3.2568 8.0466C3.1722 8.2326 3.0936 8.4204 3.0198 8.613C2.93393 8.84752 2.70975 9.00255 2.46 9H1.8C0.805875 9 0 9.80588 0 10.8V13.2C0 14.1941 0.805875 15 1.8 15H2.46C2.70825 14.9996 2.93033 15.1544 3.0156 15.3876C3.0888 15.5796 3.1674 15.7674 3.252 15.9534C3.35715 16.1796 3.30915 16.4474 3.132 16.623L2.6616 17.094C1.96245 17.7977 1.96245 18.9338 2.6616 19.6374L4.3572 21.333C5.06093 22.0326 6.19747 22.0326 6.9012 21.333L7.3716 20.8632C7.54755 20.6867 7.81493 20.6388 8.0412 20.7432C8.2272 20.8278 8.415 20.9064 8.6076 20.9832C8.84317 21.0669 9.00045 21.29 9 21.54V22.2C9 23.1941 9.80588 24 10.8 24H13.2C14.1941 24 15 23.1941 15 22.2V21.54C14.9996 21.2918 15.1544 21.0697 15.3876 20.9844C15.5796 20.9112 15.7674 20.8326 15.9534 20.748C16.1797 20.6434 16.4471 20.6913 16.623 20.868L17.094 21.3384C17.7986 22.0364 18.9344 22.0351 19.6374 21.3354L21.333 19.6398C22.0326 18.9361 22.0326 17.7995 21.333 17.0958L20.8632 16.6254C20.6861 16.4498 20.6381 16.182 20.7432 15.9558C20.8278 15.7698 20.9064 15.582 20.9832 15.3894C21.0679 15.155 21.2908 14.9991 21.54 15H22.2C23.1941 15 24 14.1941 24 13.2V10.8C24 9.80588 23.1941 9 22.2 9ZM22.8 13.2C22.8 13.5314 22.5314 13.8 22.2 13.8H21.54C20.7941 13.8028 20.1266 14.2638 19.86 14.9604C19.7964 15.1284 19.7276 15.2938 19.6536 15.4566C19.3451 16.1376 19.4882 16.9383 20.0136 17.4702L20.4828 17.94C20.7173 18.1742 20.7175 18.5541 20.4832 18.7886C20.4831 18.7887 20.483 18.7889 20.4828 18.789L18.7872 20.4846C18.5529 20.7188 18.1731 20.7188 17.9388 20.4846L17.4684 20.0148C16.9367 19.489 16.1357 19.3458 15.4548 19.6548C15.2922 19.7286 15.1266 19.7976 14.9598 19.8612C14.2637 20.1278 13.803 20.7947 13.8 21.54V22.2C13.8 22.5314 13.5314 22.8 13.2 22.8H10.8C10.4687 22.8 10.2 22.5314 10.2 22.2V21.54C10.1972 20.7941 9.7362 20.1266 9.0396 19.86C8.8716 19.7964 8.70623 19.7276 8.5434 19.6536C7.8624 19.3453 7.06178 19.4885 6.5298 20.0136L6.06 20.4828C5.82585 20.7173 5.4459 20.7175 5.21145 20.4832C5.2113 20.4831 5.21115 20.483 5.211 20.4828L3.5154 18.789C3.28118 18.5547 3.28118 18.1749 3.5154 17.9406L3.9852 17.4702C4.51058 16.9383 4.65368 16.1376 4.3452 15.4566C4.2714 15.294 4.2024 15.1284 4.1388 14.9616C3.87285 14.2648 3.2058 13.8033 2.46 13.8H1.8C1.46865 13.8 1.2 13.5314 1.2 13.2V10.8C1.2 10.4687 1.46865 10.2 1.8 10.2H2.46C3.20588 10.1972 3.87338 9.7362 4.14 9.0396C4.2036 8.8716 4.27238 8.70622 4.3464 8.5434C4.65488 7.8624 4.5117 7.0617 3.9864 6.5298L3.5148 6.06C3.28035 5.82585 3.28013 5.4459 3.51435 5.21145C3.5145 5.2113 3.51465 5.21115 3.5148 5.211L5.2104 3.5154C5.4447 3.28117 5.8245 3.28117 6.0588 3.5154L6.5292 3.9852C7.06088 4.51103 7.86188 4.6542 8.5428 4.3452C8.7054 4.2714 8.871 4.2024 9.0378 4.1388C9.73485 3.87308 10.1966 3.20595 10.2 2.46V1.8C10.2 1.46865 10.4687 1.2 10.8 1.2H13.2C13.5314 1.2 13.8 1.46865 13.8 1.8V2.46C13.8028 3.20588 14.2638 3.87337 14.9604 4.14C15.1284 4.2036 15.2938 4.27237 15.4566 4.3464C16.1375 4.6554 16.9385 4.51222 17.4702 3.9864L17.94 3.5172C18.1752 3.28455 18.5538 3.28455 18.789 3.5172L20.4846 5.2128C20.7188 5.4471 20.7188 5.8269 20.4846 6.0612L20.0148 6.5316C19.4895 7.0635 19.3463 7.8642 19.6548 8.5452C19.7286 8.7078 19.7976 8.8734 19.8612 9.0402C20.1278 9.73628 20.7947 10.197 21.54 10.2H22.2C22.5314 10.2 22.8 10.4687 22.8 10.8V13.2Z" fill="#6A6A6A"/>
<path d="M17.388 11.76C17.382 11.616 17.3718 11.4726 17.3544 11.3298C17.3352 11.1762 17.3124 11.0238 17.2806 10.8744C17.2596 10.7766 17.232 10.68 17.2056 10.5828C17.172 10.4592 17.1342 10.3374 17.0922 10.2174C17.0628 10.134 17.0322 10.0512 17.001 9.96901C16.9237 9.77686 16.8354 9.58928 16.7364 9.40741C16.7286 9.39361 16.7238 9.37861 16.716 9.36481C16.5599 9.08701 16.3791 8.82368 16.176 8.57821C16.1586 8.55661 16.1388 8.53621 16.1208 8.51521C16.038 8.41741 15.9528 8.32261 15.8634 8.23201C15.8166 8.18341 15.7674 8.13781 15.7182 8.09101C15.6582 8.03521 15.5982 7.98001 15.5382 7.92721C15.4653 7.86398 15.3912 7.80278 15.3156 7.74361L15.2172 7.67041C14.2887 6.97501 13.1599 6.59941 12 6.60001C11.94 6.60001 11.88 6.60901 11.82 6.61141C11.6922 6.61501 11.5638 6.62221 11.4348 6.63541C11.367 6.64261 11.2986 6.65041 11.2308 6.66001C11.0352 6.68573 10.8411 6.72203 10.6494 6.76861C7.7603 7.51516 6.02345 10.4625 6.77 13.3516C7.262 15.2554 8.7494 16.7416 10.6536 17.232C10.6632 17.232 10.6734 17.235 10.6836 17.2374C10.8908 17.2891 11.1007 17.3292 11.3124 17.3574C11.4522 17.3748 11.592 17.3784 11.7324 17.385C11.826 17.3898 11.9124 17.4036 12.0102 17.4036C12.1812 17.4036 12.3588 17.3922 12.54 17.3742C12.5592 17.3742 12.5784 17.3688 12.6 17.3664C12.7458 17.3502 12.8934 17.3286 13.044 17.2986C13.104 17.2872 13.1598 17.2722 13.2174 17.259C13.323 17.2344 13.428 17.2086 13.536 17.1768C13.62 17.1516 13.7016 17.1222 13.7838 17.0934C13.866 17.0646 13.9512 17.0334 14.0364 17.001C14.1216 16.9686 14.193 16.9314 14.2704 16.8954C14.3712 16.8492 14.4714 16.8036 14.5704 16.7496H14.574C15.1339 16.4498 15.6511 16.0763 16.1118 15.639C16.2362 15.5229 16.3444 15.3905 16.4334 15.2454C16.9017 14.4947 17.2093 13.655 17.337 12.7794C17.3538 12.6636 17.3688 12.5478 17.3778 12.4296C17.3862 12.321 17.3922 12.213 17.3946 12.105C17.3946 12.0708 17.3994 12.0384 17.3994 12.0042C17.4 11.9196 17.3916 11.8416 17.388 11.76ZM16.1922 12.153C16.1922 12.2028 16.188 12.2526 16.185 12.3018C16.1742 12.447 16.1556 12.5922 16.131 12.738C15.9067 13.9855 15.1322 15.0655 14.0226 15.678C13.9482 15.717 13.875 15.7536 13.8018 15.7872L13.752 15.8112C13.4034 15.9695 13.0354 16.0808 12.6576 16.1424C12.6312 16.1466 12.6042 16.1514 12.5772 16.155C12.5022 16.1658 12.4284 16.1748 12.3552 16.1814C12.2586 16.1898 12.1614 16.1946 12.0624 16.1964C12.0204 16.1964 11.979 16.1964 11.937 16.1964C11.795 16.1948 11.6532 16.186 11.5122 16.17L11.4402 16.1616C11.2752 16.14 11.1115 16.1092 10.95 16.0692C8.70282 15.494 7.34742 13.2061 7.92252 10.9589C8.30255 9.47408 9.4613 8.31413 10.9458 7.93261V7.93201C11.2905 7.84508 11.6445 7.80068 12 7.80001C12.1715 7.80098 12.3429 7.81261 12.513 7.83481C12.5586 7.84021 12.6036 7.84861 12.6486 7.85521C12.7782 7.87561 12.9066 7.90141 13.0332 7.93381C13.0746 7.94461 13.116 7.95421 13.1568 7.96561C13.4758 8.05771 13.7829 8.18701 14.0718 8.35081C14.118 8.37781 14.163 8.40601 14.2086 8.43421C14.3034 8.49421 14.3952 8.55421 14.4858 8.62261C14.5344 8.65801 14.5836 8.69281 14.6304 8.73061C14.7481 8.82466 14.8608 8.92478 14.9682 9.03061C15.0108 9.07381 15.0498 9.12121 15.0912 9.16621C15.1602 9.24121 15.2274 9.31801 15.2916 9.39901C15.336 9.45481 15.3786 9.51241 15.4206 9.57061C15.4806 9.65701 15.5406 9.74701 15.5946 9.83821C15.6246 9.88801 15.6546 9.93661 15.6852 9.98761C15.7626 10.13 15.8315 10.2769 15.8916 10.4274C15.9156 10.4874 15.936 10.5474 15.9576 10.6074C15.9966 10.7178 16.0302 10.8294 16.0596 10.9422C16.0746 11.0022 16.0914 11.0556 16.104 11.1138C16.139 11.276 16.1644 11.4401 16.1802 11.6052C16.1838 11.649 16.1838 11.6934 16.1868 11.7372C16.1952 11.8752 16.1976 12.0138 16.1922 12.153Z" fill="#6A6A6A"/>
</svg>
