<svg width="30" height="30" viewBox="0 0 30 30" fill="none" xmlns="http://www.w3.org/2000/svg">
<path d="M22.5 30C22.125 29.75 21.875 29.5 21.5 29.125C21 28.625 20.625 28.25 20.125 27.75C19.625 27.25 19.625 26.625 20.25 26.125C21.5 25.25 22.75 24.25 23.875 23.375C24 23.25 24 23.125 24 23.125C24.25 21.625 25.625 20.75 27.125 21.375C27.25 21.375 27.375 21.375 27.5 21.25C27.875 20.875 28.25 20.5 28.625 20.125C29 19.75 29 19.375 28.625 19C28.375 18.625 27.875 18.75 27.5 19C27.125 19.375 26.75 19.75 26.375 20.125C25.625 20.875 24.75 20.875 23.875 20.125C23.875 20.125 23.875 20.125 23.75 20C23.375 21.5 22.375 22.125 20.875 21.875C20.875 22.75 20.5 23.5 19.75 24C19 24.5 18.125 24.375 17.25 23.875C16.875 24.75 16.375 25.375 15.375 25.5C14.5 25.625 13.75 25.375 13.125 24.625C13 24.75 12.75 25 12.625 25.125C12.375 25.375 12.125 25.375 11.875 25.125C11.75 24.875 11.75 24.625 12 24.5C12.5 24.125 12.625 23.625 12.625 23.125C12.5 22.625 12.25 22.25 11.75 22C11.125 21.75 10.375 22.125 10.125 22.625C9.75 23.25 10 24 10.5 24.375L10.625 24.5C10.875 24.625 10.875 24.875 10.75 25.125C10.625 25.25 10.375 25.375 10.125 25.25C9.75 25 9.375 24.625 9.25 24.125C9.25 24 9.25 24 9.125 23.875C8.25 24.375 7.5 24.375 6.625 23.875C5.875 23.375 5.5 22.625 5.5 21.75C3.75 22.375 2.375 20.625 3 18.75C2.125 18.625 1.375 18.125 1.125 17.25C0.75 16.375 1 15.625 1.625 14.875C0.875 14.375 0.375 13.75 0.375 12.75C0.375 11.75 0.875 11.125 1.625 10.75C0.375 9.25 1.25 7.25 3.125 6.875C2.875 6 2.875 5.25 3.5 4.5C4.125 3.75 4.875 3.625 5.875 3.75C5.875 2.875 6.25 2.125 7 1.625C7.75 1.125 8.625 1.25 9.375 1.625C9.5 1.375 9.75 1 9.875 0.75C10.25 0.375 10.75 0.25 11.25 0C11.5 0 11.75 0 12 0C12.625 0.125 13.125 0.375 13.5 1C14.125 0.25 14.875 0 15.75 0.125C16.625 0.25 17.25 0.875 17.5 1.75C18.375 1.25 19.125 1.25 20 1.75C20.75 2.25 21.125 3 21.125 3.875C22 3.75 22.875 4 23.375 4.625C24 5.375 24.125 6.25 23.75 7C24.625 7.125 25.375 7.625 25.625 8.5C25.875 9.375 25.75 10.125 25.125 10.875C26.875 11.875 26.75 14.125 25.125 15C25.75 15.625 25.875 16.5 25.625 17.25C25.375 18.125 24.75 18.625 23.875 18.875C24.125 19.125 24.375 19.375 24.625 19.625C25 20 25.375 20 25.875 19.625C26.25 19.25 26.625 18.75 27.125 18.375C28 17.5 29.5 18 29.75 19.125C29.875 19.75 29.75 20.25 29.25 20.75C28.875 21.125 28.375 21.625 28 22V22.125C29 23.625 28.375 25.25 26.625 25.75C26.5 25.75 26.375 25.875 26.375 25.875C25.5 27 24.625 28.25 23.625 29.375C23.375 29.625 23.125 29.875 22.875 30C22.75 30 22.625 30 22.5 30ZM5.375 17.5C6.75 17.75 7.375 18.625 7.375 20C8.75 19.875 9.625 20.375 10.125 21.625C11.25 21 12.5 21.25 13.25 22.25C14 21.375 15.25 21 16.375 21.75C16.625 21.125 16.875 20.75 17.5 20.375C18 20.125 18.625 20 19.25 20.125C19.375 18.75 20 18 21.375 17.625C21 16.375 21.375 15.375 22.5 14.625C21.625 13.5 21.625 12.5 22.5 11.375C22 11.125 21.625 10.625 21.375 10.125C21.125 9.5 21.25 9 21.5 8.375C21.375 8.375 21.375 8.375 21.25 8.375C21 8.25 20.75 8.125 20.875 7.875C20.875 7.625 21.125 7.5 21.5 7.5C22.25 7.625 22.875 7.25 23.125 6.5C23.375 5.875 23 5.125 22.375 4.875C21.75 4.625 21.25 4.625 20.875 5C20.375 5.375 20.25 5.875 20.375 6.375C20.375 6.75 20.25 6.875 20 7C19.75 7 19.5 6.875 19.5 6.625C19.5 6.375 19.5 6.25 19.375 6C18 6.125 17.125 5.625 16.625 4.375C15.375 5 14.375 4.75 13.5 3.75C13.125 4.25 12.625 4.5 12 4.625C11.375 4.75 10.875 4.625 10.375 4.25C9.875 5.5 8.875 6 7.5 5.875C7.5 7.25 6.75 8 5.375 8.25C5.625 8.875 5.625 9.375 5.375 10C5.25 10.5 4.875 11 4.375 11.25C4.5 11.375 4.625 11.5 4.625 11.625C4.75 11.875 4.625 12 4.5 12.125C4.25 12.25 4.125 12.25 4 12.125C3.875 12.125 3.75 12 3.75 11.875C3.375 11.5 2.75 11.375 2.125 11.5C1.625 11.75 1.25 12.25 1.25 12.875C1.25 13.5 1.625 14 2.25 14.125C2.875 14.375 3.375 14.125 3.875 13.5C4 13.25 4.25 13.25 4.5 13.375C4.75 13.5 4.75 13.75 4.625 14C4.5 14.125 4.375 14.25 4.375 14.375C5.5 15.375 5.75 16 5.375 17.5ZM24.125 24.375C22.875 25.25 21.75 26.125 20.5 27.125C20.75 27.375 20.875 27.5 21.125 27.75C21.25 27.625 21.375 27.5 21.625 27.375C22 27 22.375 26.625 22.875 26.375C23.125 26.25 23.375 26.25 23.5 26.375C23.625 26.5 23.625 26.75 23.5 27C23.5 27.125 23.375 27.125 23.25 27.125C22.75 27.5 22.375 28 21.875 28.375C22.125 28.625 22.375 28.875 22.625 29.125C22.75 29.25 22.875 29.25 23 29.125C23.5 28.5 24 28 24.375 27.5C24.75 27 25.25 26.375 25.625 25.875C24.625 25.25 24.625 25.125 24.125 24.375ZM16.75 2.375C16.75 1.625 16.125 1 15.375 1C14.625 1 14 1.625 14 2.375C14 3.125 14.625 3.75 15.375 3.75C16.125 3.75 16.75 3.125 16.75 2.375ZM15.25 24.875C16 24.875 16.625 24.25 16.625 23.5C16.625 22.75 16 22.125 15.25 22.125C14.5 22.125 13.875 22.75 13.875 23.5C13.75 24.25 14.375 24.875 15.25 24.875ZM3.25 15.125C2.5 15.125 1.875 15.75 1.875 16.5C1.875 17.25 2.5 17.875 3.25 17.875C4 17.875 4.625 17.25 4.625 16.5C4.75 15.75 4.125 15.125 3.25 15.125ZM23 19.875C23 19.125 22.375 18.5 21.625 18.5C20.875 18.5 20.25 19.125 20.25 19.875C20.25 20.625 20.875 21.25 21.625 21.25C22.375 21.375 23 20.625 23 19.875ZM11.625 3.75C12.375 3.75 13 3.125 13 2.375C13 1.625 12.375 1 11.625 1C10.875 1 10.25 1.625 10.25 2.375C10.25 3.125 10.875 3.75 11.625 3.75ZM18.875 2.25C18.125 2.25 17.5 2.875 17.5 3.625C17.5 4.375 18.125 5 18.875 5C19.625 5 20.25 4.375 20.25 3.625C20.25 2.875 19.625 2.25 18.875 2.25ZM4.75 9.125C4.75 8.375 4.125 7.75 3.375 7.75C2.625 7.75 2 8.375 2 9.125C2 9.875 2.625 10.5 3.375 10.5C4.125 10.625 4.75 10 4.75 9.125ZM18.625 23.625C19.375 23.625 20 23 20 22.25C20 21.5 19.375 20.875 18.625 20.875C17.875 20.875 17.25 21.5 17.25 22.25C17.25 23 17.875 23.625 18.625 23.625ZM23.5 15.25C22.75 15.25 22.125 15.875 22.125 16.625C22.125 17.375 22.75 18 23.5 18C24.25 18 24.875 17.375 24.875 16.625C24.875 15.875 24.25 15.25 23.5 15.25ZM9.375 22.125C9.375 21.375 8.75 20.75 8 20.75C7.25 20.75 6.625 21.375 6.625 22.125C6.625 22.875 7.25 23.5 8 23.5C8.75 23.625 9.375 23 9.375 22.125ZM5.125 21.125C5.875 21.125 6.5 20.5 6.5 19.75C6.5 19 5.875 18.375 5.125 18.375C4.375 18.375 3.75 19 3.75 19.75C3.75 20.5 4.375 21.125 5.125 21.125ZM24.125 14.375C24.875 14.375 25.5 13.75 25.5 13C25.5 12.25 24.875 11.625 24.125 11.625C23.375 11.625 22.75 12.25 22.75 13C22.75 13.75 23.375 14.375 24.125 14.375ZM5.25 4.5C4.5 4.5 3.875 5.125 3.875 5.875C3.875 6.625 4.5 7.25 5.25 7.25C6 7.25 6.625 6.625 6.625 5.875C6.625 5.25 6 4.625 5.25 4.5ZM8.125 5C8.875 5 9.5 4.375 9.5 3.625C9.5 2.875 8.875 2.25 8.125 2.25C7.375 2.25 6.75 2.875 6.75 3.625C6.75 4.375 7.375 5 8.125 5ZM23.5 10.75C24.25 10.75 24.875 10.125 24.875 9.375C24.875 8.625 24.25 8 23.5 8C22.75 8 22.125 8.625 22.125 9.375C22.125 10.125 22.75 10.75 23.5 10.75ZM26.25 24.875C27 24.875 27.625 24.25 27.625 23.5C27.625 22.75 27 22.125 26.25 22.125C25.5 22.125 24.875 22.75 24.875 23.5C24.875 24.25 25.5 24.875 26.25 24.875Z" fill="#6A6A6A"/>
</svg>
